<?xml version="1.0" encoding="UTF-8"?>
<svg width="40px" height="40px" viewBox="0 0 40 40" version="1.1" xmlns="http://www.w3.org/2000/svg">
    <defs>
        <linearGradient x1="-5.859375%" y1="38.2703387%" x2="91.40625%" y2="60.9240123%" id="linearGradient-1">
            <stop stop-color="#76B3E1" offset="10%"/>
            <stop stop-color="#DCF2FD" offset="30%"/>
            <stop stop-color="#76B3E1" offset="100%"/>
        </linearGradient>
        <linearGradient x1="56.9960525%" y1="38.4398744%" x2="37.9414579%" y2="68.3745528%" id="linearGradient-2">
            <stop stop-color="#76B3E1" offset="0%"/>
            <stop stop-color="#4377BB" offset="50%"/>
            <stop stop-color="#1F3B77" offset="100%"/>
        </linearGradient>
        <linearGradient x1="10.7088533%" y1="34.5316722%" x2="104.336952%" y2="70.4544679%" id="linearGradient-3">
            <stop stop-color="#315AA9" offset="0%"/>
            <stop stop-color="#518AC8" offset="50%"/>
            <stop stop-color="#315AA9" offset="100%"/>
        </linearGradient>
        <linearGradient x1="61.992557%" y1="29.5796581%" x2="17.7619124%" y2="105.119304%" id="linearGradient-4">
            <stop stop-color="#4377BB" offset="0%"/>
            <stop stop-color="#1A336B" offset="50%"/>
            <stop stop-color="#1A336B" offset="100%"/>
        </linearGradient>
    </defs>
    <g id="Plugin-Icon" stroke="none" stroke-width="1" fill="none" fill-rule="evenodd">
        <g id="logo" transform="translate(4.000000, 5.000000)" fill-rule="nonzero">
            <path d="M32,6.3091109 C32,6.3091109 21.3333333,-1.53994571 13.081761,0.271375048 L12.4779874,0.472632909 C11.2704403,0.875148633 10.2641509,1.47892222 9.66037736,2.28395366 L9.25786164,2.88772725 L6.23899371,8.12043165 L11.4716981,9.12672096 C13.6855346,10.535526 16.5031447,11.1392996 19.1194969,10.535526 L28.3773585,12.3468467 L32,6.3091109 Z"
                  id="Path" fill="#76B3E1"/>
            <path d="M32,6.3091109 C32,6.3091109 21.3333333,-1.53994571 13.081761,0.271375048 L12.4779874,0.472632909 C11.2704403,0.875148633 10.2641509,1.47892222 9.66037736,2.28395366 L9.25786164,2.88772725 L6.23899371,8.12043165 L11.4716981,9.12672096 C13.6855346,10.535526 16.5031447,11.1392996 19.1194969,10.535526 L28.3773585,12.3468467 L32,6.3091109 Z"
                  id="Path" fill="url(#linearGradient-1)" opacity="0.3"/>
            <path d="M9.66037736,6.3091109 L8.85534591,6.51036876 C5.43396226,7.51665807 4.42767296,10.7367839 6.23899371,13.5543939 C8.25157233,16.1707461 12.4779874,17.5795511 15.8993711,16.5732618 L28.3773585,12.3468467 C28.3773585,12.3468467 17.7106918,4.49779014 9.66037736,6.3091109 Z"
                  id="Path" fill="#518AC8"/>
            <path d="M9.66037736,6.3091109 L8.85534591,6.51036876 C5.43396226,7.51665807 4.42767296,10.7367839 6.23899371,13.5543939 C8.25157233,16.1707461 12.4779874,17.5795511 15.8993711,16.5732618 L28.3773585,12.3468467 C28.3773585,12.3468467 17.7106918,4.49779014 9.66037736,6.3091109 Z"
                  id="Path" fill="url(#linearGradient-2)" opacity="0.3"/>
            <path d="M26.163522,15.3657147 C23.8585786,12.486132 20.0375758,11.2920687 16.5031447,12.3468467 L4.02515723,16.372004 L0,23.4160291 L22.5408805,27.2399285 L26.5660377,19.9946455 C27.3710692,18.5858405 27.1698113,16.9757776 26.163522,15.3657147 Z"
                  id="Path" fill="url(#linearGradient-3)"/>
            <path d="M22.1383648,22.4097398 C19.8334213,19.5301572 16.0124186,18.3360938 12.4779874,19.3908719 L0,23.4160291 C0,23.4160291 10.6666667,31.4663436 18.918239,29.453765 L19.5220126,29.2525071 C22.9433962,28.2462178 24.1509434,25.026092 22.1383648,22.4097398 Z"
                  id="Path" fill="url(#linearGradient-4)"/>
        </g>
    </g>
</svg>
