<?xml version="1.0" encoding="UTF-8"?>
<svg width="16px" height="16px" viewBox="0 0 16 16" version="1.1" xmlns="http://www.w3.org/2000/svg">
    <defs>
        <linearGradient x1="-5.859375%" y1="38.2703387%" x2="91.40625%" y2="60.9240123%" id="linearGradient-1">
            <stop stop-color="#76B3E1" offset="10%"/>
            <stop stop-color="#DCF2FD" offset="30%"/>
            <stop stop-color="#76B3E1" offset="100%"/>
        </linearGradient>
        <linearGradient x1="56.9960525%" y1="38.4398744%" x2="37.9414579%" y2="68.3745528%" id="linearGradient-2">
            <stop stop-color="#76B3E1" offset="0%"/>
            <stop stop-color="#4377BB" offset="50%"/>
            <stop stop-color="#1F3B77" offset="100%"/>
        </linearGradient>
        <linearGradient x1="10.7088533%" y1="34.5316722%" x2="104.336952%" y2="70.4544679%" id="linearGradient-3">
            <stop stop-color="#315AA9" offset="0%"/>
            <stop stop-color="#518AC8" offset="50%"/>
            <stop stop-color="#315AA9" offset="100%"/>
        </linearGradient>
        <linearGradient x1="61.992557%" y1="29.5796581%" x2="17.7619124%" y2="105.119304%" id="linearGradient-4">
            <stop stop-color="#4377BB" offset="0%"/>
            <stop stop-color="#1A336B" offset="50%"/>
            <stop stop-color="#1A336B" offset="100%"/>
        </linearGradient>
    </defs>
    <g id="Generator-Icon" stroke="none" stroke-width="1" fill="none" fill-rule="evenodd">
        <g id="logo" transform="translate(2.000000, 2.000000)" fill-rule="nonzero">
            <path d="M12.8,2.52364436 C12.8,2.52364436 8.53333333,-0.615978283 5.2327044,0.108550019 L4.99119497,0.189053164 C4.5081761,0.350059453 4.10566038,0.591568887 3.86415094,0.913581466 L3.70314465,1.1550909 L2.49559748,3.24817266 L4.58867925,3.65068838 C5.47421384,4.2142104 6.60125786,4.45571983 7.64779874,4.2142104 L11.3509434,4.9387387 L12.8,2.52364436 Z"
                  id="Path" fill="#76B3E1"/>
            <path d="M12.8,2.52364436 C12.8,2.52364436 8.53333333,-0.615978283 5.2327044,0.108550019 L4.99119497,0.189053164 C4.5081761,0.350059453 4.10566038,0.591568887 3.86415094,0.913581466 L3.70314465,1.1550909 L2.49559748,3.24817266 L4.58867925,3.65068838 C5.47421384,4.2142104 6.60125786,4.45571983 7.64779874,4.2142104 L11.3509434,4.9387387 L12.8,2.52364436 Z"
                  id="Path" fill="url(#linearGradient-1)" opacity="0.3"/>
            <path d="M3.86415094,2.52364436 L3.54213836,2.6041475 C2.17358491,3.00666323 1.77106918,4.29471354 2.49559748,5.42175757 C3.30062893,6.46829845 4.99119497,7.03182046 6.35974843,6.62930474 L11.3509434,4.9387387 C11.3509434,4.9387387 7.08427673,1.79911606 3.86415094,2.52364436 Z"
                  id="Path" fill="#518AC8"/>
            <path d="M3.86415094,2.52364436 L3.54213836,2.6041475 C2.17358491,3.00666323 1.77106918,4.29471354 2.49559748,5.42175757 C3.30062893,6.46829845 4.99119497,7.03182046 6.35974843,6.62930474 L11.3509434,4.9387387 C11.3509434,4.9387387 7.08427673,1.79911606 3.86415094,2.52364436 Z"
                  id="Path" fill="url(#linearGradient-2)" opacity="0.3"/>
            <path d="M10.4654088,6.14628587 C9.54343142,4.99445281 8.01503034,4.51682747 6.60125786,4.9387387 L1.61006289,6.54880159 L0,9.36641165 L9.0163522,10.8959714 L10.6264151,7.9978582 C10.9484277,7.43433618 10.8679245,6.79031103 10.4654088,6.14628587 Z"
                  id="Path" fill="url(#linearGradient-3)"/>
            <path d="M8.85534591,8.96389593 C7.93336853,7.81206287 6.40496744,7.33443753 4.99119497,7.75634876 L0,9.36641165 C0,9.36641165 4.26666667,12.5865374 7.5672956,11.781506 L7.80880503,11.7010028 C9.17735849,11.2984871 9.66037736,10.0104368 8.85534591,8.96389593 Z"
                  id="Path" fill="url(#linearGradient-4)"/>
        </g>
    </g>
</svg>
